<?xml version="1.0" encoding="UTF-8"?>
<svg id="Logo" xmlns="http://www.w3.org/2000/svg" viewBox="0 0 5658.06 4000">
  <defs>
    <style>
      .cls-1 {
        stroke: #231f20;
        stroke-miterlimit: 10;
        stroke-width: 273.42px;
      }

      .cls-1, .cls-2 {
        fill: none;
        stroke-linecap: round;
      }

      .cls-2 {
        stroke: #fff;
        stroke-linejoin: round;
        stroke-width: 68.36px;
      }

      .cls-3 {
        fill: #04f;
      }
    </style>
  </defs>
  <path id="Black_Lines" data-name="Black Lines" class="cls-1" d="M2829.06,3528.6l1151.47-1994.4M1805.52,869.44l2047.07-.04m-383.85,664.8l383.85-664.8m-1407.34,1994.45l-127.99,221.6m511.79,443.15L1677.55,1534.2m0,0H3980.53m-1791.21,0l-383.8-664.77m511.74,2216.02l-1023.51-1772.85m0,0h767.64m1535.28-.03l767.68,.07m-1023.53,1772.76l-127.98-221.6m127.98,221.6l1023.53-1772.76m-2302.98,443.16h1535.3m-1535.3,0l767.65,1329.65m767.65-1329.65l-767.65,1329.65m-383.78-1551.29l-255.9-443.16m0,0l1279.39,.04m0,0l-255.9,443.13"/>
  <g id="Blue_Fields" data-name="Blue Fields">
    <path class="cls-3" d="M3596.68,1312.57l255.91-443.17-2047.06,.03,255.87,443.17h-767.64s1023.51,1772.85,1023.51,1772.85l127.99-221.6,383.81,664.75,383.78-664.81,127.98,221.6,1023.53-1772.76-767.68-.07Zm-127.94-221.54l-255.9,443.13h-767.58l-255.9-443.16,1279.39,.04Zm-639.71,1994.41l-767.65-1329.65h1535.3s-767.65,1329.65-767.65,1329.65Z"/>
  </g>
  <path id="White_Lines" data-name="White Lines" class="cls-2" d="M2829.06,3528.6l1151.47-1994.4M1805.52,869.44l2047.07-.04m-383.85,664.8l383.85-664.8m-1407.34,1994.45l-127.99,221.6m511.79,443.15L1677.55,1534.2m0,0H3980.53m-1791.21,0l-383.8-664.77m511.74,2216.02l-1023.51-1772.85m0,0h767.64m1535.28-.03l767.68,.07m-1023.53,1772.76l-127.98-221.6m127.98,221.6l1023.53-1772.76m-2302.98,443.16h1535.3m-1535.3,0l767.65,1329.65m767.65-1329.65l-767.65,1329.65m-383.78-1551.29l-255.9-443.16m0,0l1279.39,.04m0,0l-255.9,443.13"/>
</svg>