<?xml version="1.0" encoding="UTF-8"?>
<svg id="Logo" xmlns="http://www.w3.org/2000/svg" viewBox="0 0 5658.06 4000">
  <defs>
    <style>
      .cls-1 {
        stroke: #fff;
        stroke-linejoin: round;
        stroke-width: 67.98px;
      }

      .cls-1, .cls-2 {
        fill: none;
        stroke-linecap: round;
      }

      .cls-3 {
        fill: #04f;
      }

      .cls-2 {
        stroke: #231f20;
        stroke-miterlimit: 10;
        stroke-width: 271.9px;
      }
    </style>
  </defs>
  <path id="Black_Lines" data-name="Black Lines" class="cls-2" d="M2829.06,3322.2l1145.06-1983.3M1811.22,677.84l2035.67-.04m-381.71,661.1l381.71-661.1m-1399.5,1983.35l-127.28,220.37m508.94,440.68L1683.96,1338.9m0,0H3974.12m-1781.24,0l-381.66-661.07m508.89,2203.68l-1017.81-1762.98m0,0h763.37m1526.74-.03l763.4,.07m-1017.84,1762.89l-127.27-220.37m127.27,220.37l1017.84-1762.89m-2290.16,440.7h1526.76m-1526.76,0l763.38,1322.25m763.38-1322.25l-763.38,1322.25m-381.64-1542.65l-254.48-440.7m0,0l1272.27,.04m0,0l-254.48,440.66"/>
  <g id="Blue_Fields" data-name="Blue Fields">
    <path class="cls-3" d="M3592.41,1118.51l254.48-440.71-2035.67,.03,254.45,440.7h-763.37s1017.81,1762.98,1017.81,1762.98l127.28-220.37,381.67,661.05,381.65-661.11,127.27,220.37,1017.84-1762.89-763.4-.07Zm-127.23-220.3l-254.48,440.66h-763.31l-254.48-440.7,1272.27,.04Zm-636.15,1983.31l-763.38-1322.25h1526.76s-763.38,1322.25-763.38,1322.25Z"/>
  </g>
  <path id="White_Lines" data-name="White Lines" class="cls-1" d="M2829.06,3322.2l1145.06-1983.3M1811.22,677.84l2035.67-.04m-381.71,661.1l381.71-661.1m-1399.5,1983.35l-127.28,220.37m508.94,440.68L1683.96,1338.9m0,0H3974.12m-1781.24,0l-381.66-661.07m508.89,2203.68l-1017.81-1762.98m0,0h763.37m1526.74-.03l763.4,.07m-1017.84,1762.89l-127.27-220.37m127.27,220.37l1017.84-1762.89m-2290.16,440.7h1526.76m-1526.76,0l763.38,1322.25m763.38-1322.25l-763.38,1322.25m-381.64-1542.65l-254.48-440.7m0,0l1272.27,.04m0,0l-254.48,440.66"/>
</svg>